# xmcd
#
# Track frame offsets:
# 150
# 14303
# 29800
# 41222
# 64908
# 85477
# 101079
# 111609
# 124766
# 137116
# 149238
# 163576
# 174678
# 187924
# 208355
# 219809
# 231981
# 244042
# 257109
# 273126
# 283225
#
# Disc length: 3934 seconds
#
#
# Revision: 0
# Processed by: cddbd v1.4PL0 Copyright (c) Steve Scherf et al.
# Submitted via: FreeRIP 2.11 
#
DISCID=550f5c15
DTITLE=Creedence Clearwater Revival - Greatest Hits
DYEAR=1900
DGENRE=Country
TTITLE0=Proud Mary
TTITLE1=Before You Accuse Me
TTITLE2=Green River
TTITLE3=Born on the Bayou
TTITLE4=Susie Q
TTITLE5=Looking For Reason
TTITLE6=Bad Moon Rising
TTITLE7=Sweet Hitch Hiker
TTITLE8=Down The Corner
TTITLE9=Up Around The Bend
TTITLE10=Lodi
TTITLE11=Who'll Stop The Rain
TTITLE12=Cotton Fields
TTITLE13=I Put A Spell On You
TTITLE14=Looking Out My Back Door
TTITLE15=Good Golly Missy Molly
TTITLE16=Hey Tonight
TTITLE17=It Came Out Of The Sky
TTITLE18=Long AsI Can See The Light
TTITLE19=Hello Mary Lou
TTITLE20=Have You Ever Seen The Rain
EXTD=
EXTT0=
EXTT1=
EXTT2=
EXTT3=
EXTT4=
EXTT5=
EXTT6=
EXTT7=
EXTT8=
EXTT9=
EXTT10=
EXTT11=
EXTT12=
EXTT13=
EXTT14=
EXTT15=
EXTT16=
EXTT17=
EXTT18=
EXTT19=
EXTT20=
PLAYORDER=
